<svg width="1048" height="1231" viewBox="0 0 1048 1231" fill="none" xmlns="http://www.w3.org/2000/svg">
<path d="M524 621C689.387 621 823.429 486.927 823.429 321.5C823.429 156.073 689.387 22 524 22C358.613 22 224.571 156.073 224.571 321.5C224.571 486.927 358.613 621 524 621ZM748.104 697.279L636.286 1145.12L612.893 1220H564.938H511.134H430.429L411.714 1145.12L299.896 697.279C133.105 705.234 0 841.647 0 1010.35V1107.69C0 1169.69 50.2946 1220 112.286 1220H935.714C997.705 1220 1048 1169.69 1048 1107.69V1010.35C1048 841.647 914.895 705.234 748.104 697.279Z" fill="#3A3A3A" style="fill:#3A3A3A;fill:color(display-p3 0.2292 0.2292 0.2292);fill-opacity:1;"/>
<g filter="url(#filter0_d_251_34)">
<path d="M489.027 716C487.894 716 485.495 716.772 482.395 719.461C479.291 722.153 475.834 726.48 472.846 731.465C466.873 741.439 462.973 754.579 462.973 760.252C462.973 765.925 467.142 784.541 473.476 799.347C476.643 806.751 480.363 813.492 483.718 817.751C487.075 822.009 489.592 822.658 489.026 822.658H561.519C560.952 822.658 563.469 822.009 566.826 817.75C570.183 813.492 573.901 806.75 577.069 799.346C583.403 784.541 587.57 765.925 587.57 760.252C587.57 754.579 583.671 741.439 577.697 731.465C574.71 726.48 571.252 722.153 568.151 719.461C565.049 716.772 562.65 716 561.517 716H489.024H489.027ZM497.205 843.082L487.631 886.234L558.953 868.374L553.343 843.082H497.205ZM563.377 888.318L482.686 908.527L470.574 963.127L574.216 937.171L563.378 888.318H563.377ZM578.638 957.113L465.628 985.417L453.516 1040.02L589.477 1005.97L578.637 957.114L578.638 957.113ZM593.901 1025.91L448.573 1062.31L436.46 1116.91L604.739 1074.76L593.901 1025.91ZM609.162 1094.71L431.515 1139.2L428 1155.04L467.863 1181.66L620 1143.56L609.162 1094.71ZM601.138 1169.33L490.79 1196.97L525.274 1220L601.139 1169.34L601.138 1169.33Z" fill="#0F6DFB" style="fill:#0F6DFB;fill:color(display-p3 0.0588 0.4275 0.9843);fill-opacity:1;"/>
</g>
<circle cx="524.5" cy="319.5" r="317.5" stroke="#EAA53E" style="stroke:#EAA53E;stroke:color(display-p3 0.9176 0.6471 0.2431);stroke-opacity:1;" stroke-width="4" stroke-linejoin="bevel" stroke-dasharray="10 10"/>
<circle cx="524" cy="321" r="300" fill="#0F6DFB" style="fill:#0F6DFB;fill:color(display-p3 0.0588 0.4275 0.9843);fill-opacity:1;"/>
<path d="M362 301L362 336" stroke="white" style="stroke:white;stroke:white;stroke-opacity:1;" stroke-width="13" stroke-linecap="round"/>
<path d="M394 291L394 351" stroke="white" style="stroke:white;stroke:white;stroke-opacity:1;" stroke-width="13" stroke-linecap="round"/>
<path d="M427 266L427 376" stroke="white" style="stroke:white;stroke:white;stroke-opacity:1;" stroke-width="13" stroke-linecap="round"/>
<path d="M459 237L459 415" stroke="white" style="stroke:white;stroke:white;stroke-opacity:1;" stroke-width="13" stroke-linecap="round"/>
<path d="M492 211L492 434" stroke="white" style="stroke:white;stroke:white;stroke-opacity:1;" stroke-width="13" stroke-linecap="round"/>
<path d="M524 180L524 462" stroke="white" style="stroke:white;stroke:white;stroke-opacity:1;" stroke-width="13" stroke-linecap="round"/>
<path d="M557 211L557 434" stroke="white" style="stroke:white;stroke:white;stroke-opacity:1;" stroke-width="13" stroke-linecap="round"/>
<path d="M589 237L589 415" stroke="white" style="stroke:white;stroke:white;stroke-opacity:1;" stroke-width="13" stroke-linecap="round"/>
<path d="M622 266L622 376" stroke="white" style="stroke:white;stroke:white;stroke-opacity:1;" stroke-width="13" stroke-linecap="round"/>
<path d="M654 291L654 351" stroke="white" style="stroke:white;stroke:white;stroke-opacity:1;" stroke-width="13" stroke-linecap="round"/>
<path d="M687 301L687 336" stroke="white" style="stroke:white;stroke:white;stroke-opacity:1;" stroke-width="13" stroke-linecap="round"/>
<defs>
<filter id="filter0_d_251_34" x="428" y="716" width="208" height="515" filterUnits="userSpaceOnUse" color-interpolation-filters="sRGB">
<feFlood flood-opacity="0" result="BackgroundImageFix"/>
<feColorMatrix in="SourceAlpha" type="matrix" values="0 0 0 0 0 0 0 0 0 0 0 0 0 0 0 0 0 0 127 0" result="hardAlpha"/>
<feOffset dx="12" dy="7"/>
<feGaussianBlur stdDeviation="2"/>
<feComposite in2="hardAlpha" operator="out"/>
<feColorMatrix type="matrix" values="0 0 0 0 0.0588235 0 0 0 0 0.427451 0 0 0 0 0.984314 0 0 0 0.25 0"/>
<feBlend mode="normal" in2="BackgroundImageFix" result="effect1_dropShadow_251_34"/>
<feBlend mode="normal" in="SourceGraphic" in2="effect1_dropShadow_251_34" result="shape"/>
</filter>
</defs>
</svg>
