<svg  viewBox="0 0 21 21" xmlns="http://www.w3.org/2000/svg">
<path d="M0 20.1923C0 20.4065 0.0850959 20.612 0.236568 20.7634C0.388039 20.9149 0.593479 21 0.807692 21C1.02191 21 1.22735 20.9149 1.37882 20.7634C1.53029 20.612 1.61538 20.4065 1.61538 20.1923L1.61538 0.807693C1.61538 0.593479 1.53029 0.388039 1.37882 0.236567C1.22735 0.0850958 1.02191 4.76837e-07 0.807692 4.76837e-07C0.593479 4.76837e-07 0.388039 0.0850958 0.236568 0.236567C0.0850959 0.388039 0 0.593479 0 0.807693L0 20.1923ZM6.05769 19.3846C5.30795 19.3846 4.58891 19.0868 4.05876 18.5566C3.5286 18.0265 3.23077 17.3074 3.23077 16.5577V14.1346C3.23077 13.3849 3.5286 12.6658 4.05876 12.1357C4.58891 11.6055 5.30795 11.3077 6.05769 11.3077H18.1731C18.9228 11.3077 19.6419 11.6055 20.172 12.1357C20.7022 12.6658 21 13.3849 21 14.1346V16.5577C21 17.3074 20.7022 18.0265 20.172 18.5566C19.6419 19.0868 18.9228 19.3846 18.1731 19.3846H6.05769ZM6.05769 9.69231C5.30795 9.69231 4.58891 9.39447 4.05876 8.86432C3.5286 8.33417 3.23077 7.61513 3.23077 6.86538V4.44231C3.23077 3.69256 3.5286 2.97352 4.05876 2.44337C4.58891 1.91322 5.30795 1.61539 6.05769 1.61539H13.3269C14.0767 1.61539 14.7957 1.91322 15.3259 2.44337C15.856 2.97352 16.1538 3.69256 16.1538 4.44231V6.86538C16.1538 7.61513 15.856 8.33417 15.3259 8.86432C14.7957 9.39447 14.0767 9.69231 13.3269 9.69231H6.05769Z" fill="#0F6DFB" style="fill:#0F6DFB;fill:color(display-p3 0.0588 0.4275 0.9843);fill-opacity:1;"/>
</svg>
