<svg viewBox="0 0 176 220"  xmlns="http://www.w3.org/2000/svg">
<path fill-rule="evenodd" clip-rule="evenodd" d="M24.981 1.232C16.071 2.398 11.363 4.543 7.997 7.832C4.642 11.132 2.453 15.752 1.254 24.475C0.0219982 33.462 0 45.364 0 62.425V156.695C4.35274 153.716 9.18652 151.509 14.289 150.172C20.097 148.643 26.873 148.643 36.806 148.654H176V62.436C176 45.364 175.978 33.462 174.746 24.475C173.547 15.752 171.358 11.132 168.003 7.832C164.637 4.543 159.929 2.398 151.019 1.232C141.845 0.0219999 129.701 0 112.277 0H63.723C46.299 0 34.155 0.0219999 24.981 1.232ZM30.349 50.545C30.349 45.617 34.419 41.624 39.446 41.624H136.554C138.941 41.6034 141.238 42.5296 142.943 44.1997C144.648 45.8697 145.622 48.1475 145.651 50.534C145.625 52.9224 144.652 55.203 142.947 56.8754C141.242 58.5478 138.942 59.4755 136.554 59.455H39.446C37.0594 59.4756 34.7619 58.5494 33.0568 56.8793C31.3517 55.2093 30.378 52.9315 30.349 50.545ZM39.446 83.248C37.0594 83.2274 34.7619 84.1536 33.0568 85.8237C31.3517 87.4937 30.378 89.7715 30.349 92.158C30.349 97.086 34.419 101.079 39.446 101.079H100.133C102.522 101.102 104.822 100.178 106.529 98.5072C108.237 96.8369 109.212 94.5575 109.241 92.169C109.215 89.7786 108.241 87.4964 106.533 85.8237C104.825 84.1509 102.523 83.2245 100.133 83.248H39.446Z" fill="#0F6DFB" style="fill:#0F6DFB;fill:color(display-p3 0.0588 0.4275 0.9843);fill-opacity:1;"/>
<path d="M38.2006 166.485H175.998C175.965 178.915 175.767 188.199 174.755 195.525C173.556 204.248 171.367 208.868 168.012 212.168C164.646 215.457 159.938 217.602 151.028 218.768C141.854 219.978 129.71 220 112.286 220H63.7206C46.2966 220 34.1526 219.978 24.9786 218.779C16.0686 217.602 11.3606 215.457 7.99464 212.168C4.63964 208.868 2.45063 204.248 1.25163 195.525C0.800633 192.225 0.503637 188.518 0.327637 184.305C1.83863 180.187 4.32669 176.497 7.57813 173.552C10.8296 170.607 14.7472 168.495 18.9946 167.398C22.1846 166.562 26.3316 166.485 38.2006 166.485Z" fill="#0F6DFB" style="fill:#0F6DFB;fill:color(display-p3 0.0588 0.4275 0.9843);fill-opacity:1;"/>
</svg>
