<svg width="19" height="18" viewBox="0 0 19 18" fill="none" xmlns="http://www.w3.org/2000/svg">
<path opacity="0.2" d="M6.762 6.5L7.172 5.232C7.33438 4.72899 7.65201 4.29038 8.07927 3.97919C8.50653 3.668 9.02143 3.50024 9.55 3.5H12.448C12.9767 3.50002 13.4919 3.66769 13.9193 3.97889C14.3468 4.2901 14.6646 4.72882 14.827 5.232L15.237 6.5H16.5C17.163 6.5 17.7989 6.76339 18.2678 7.23223C18.7366 7.70107 19 8.33696 19 9V15C19 15.663 18.7366 16.2989 18.2678 16.7678C17.7989 17.2366 17.163 17.5 16.5 17.5H5.5C4.83696 17.5 4.20107 17.2366 3.73223 16.7678C3.26339 16.2989 3 15.663 3 15V9C3 8.33696 3.26339 7.70107 3.73223 7.23223C4.20107 6.76339 4.83696 6.5 5.5 6.5H6.762Z" fill="black" style="fill:black;fill:black;fill-opacity:1;"/>
<path fill-rule="evenodd" clip-rule="evenodd" d="M5.172 4.232L4.762 5.5H3.5C2.83696 5.5 2.20107 5.76339 1.73223 6.23223C1.26339 6.70107 1 7.33696 1 8V14C1 14.663 1.26339 15.2989 1.73223 15.7678C2.20107 16.2366 2.83696 16.5 3.5 16.5H14.5C15.163 16.5 15.7989 16.2366 16.2678 15.7678C16.7366 15.2989 17 14.663 17 14V8C17 7.33696 16.7366 6.70107 16.2678 6.23223C15.7989 5.76339 15.163 5.5 14.5 5.5H13.237L12.828 4.232C12.6655 3.72866 12.3476 3.28982 11.9199 2.9786C11.4923 2.66738 10.9769 2.49981 10.448 2.5H7.552C7.02308 2.49981 6.50774 2.66738 6.08008 2.9786C5.65242 3.28982 5.33448 3.72866 5.172 4.232ZM3.5 6.5H5.49L6.123 4.54C6.22035 4.23785 6.41105 3.97437 6.66766 3.78748C6.92427 3.6006 7.23355 3.49994 7.551 3.5H10.449C10.7663 3.50015 11.0753 3.60091 11.3317 3.78778C11.5882 3.97465 11.7787 4.23801 11.876 4.54L12.509 6.5H14.5C14.8978 6.5 15.2794 6.65804 15.5607 6.93934C15.842 7.22064 16 7.60218 16 8V14C16 14.3978 15.842 14.7794 15.5607 15.0607C15.2794 15.342 14.8978 15.5 14.5 15.5H3.5C3.10218 15.5 2.72064 15.342 2.43934 15.0607C2.15804 14.7794 2 14.3978 2 14V8C2 7.60218 2.15804 7.22064 2.43934 6.93934C2.72064 6.65804 3.10218 6.5 3.5 6.5Z" fill="black" style="fill:black;fill:black;fill-opacity:1;"/>
<path fill-rule="evenodd" clip-rule="evenodd" d="M6 10.5C6 11.2956 6.31607 12.0587 6.87868 12.6213C7.44129 13.1839 8.20435 13.5 9 13.5C9.79565 13.5 10.5587 13.1839 11.1213 12.6213C11.6839 12.0587 12 11.2956 12 10.5C12 9.70435 11.6839 8.94129 11.1213 8.37868C10.5587 7.81607 9.79565 7.5 9 7.5C8.20435 7.5 7.44129 7.81607 6.87868 8.37868C6.31607 8.94129 6 9.70435 6 10.5ZM11 10.5C11 11.0304 10.7893 11.5391 10.4142 11.9142C10.0391 12.2893 9.53043 12.5 9 12.5C8.46957 12.5 7.96086 12.2893 7.58579 11.9142C7.21071 11.5391 7 11.0304 7 10.5C7 9.96957 7.21071 9.46086 7.58579 9.08579C7.96086 8.71071 8.46957 8.5 9 8.5C9.53043 8.5 10.0391 8.71071 10.4142 9.08579C10.7893 9.46086 11 9.96957 11 10.5Z" fill="black" style="fill:black;fill:black;fill-opacity:1;"/>
<path d="M0.149932 0.87792C0.0535258 0.781381 -0.000581929 0.650499 -0.00048816 0.514067C-0.00039439 0.377634 0.0538932 0.246826 0.150432 0.15042C0.246971 0.0540141 0.377853 -9.36455e-05 0.514286 1.21669e-07C0.650718 9.38888e-05 0.781526 0.0543815 0.877932 0.15092L17.8489 17.1219C17.9453 17.2183 17.9995 17.3491 17.9995 17.4854C17.9995 17.6218 17.9453 17.7525 17.8489 17.8489C17.7525 17.9453 17.6218 17.9995 17.4854 17.9995C17.3491 17.9995 17.2183 17.9453 17.1219 17.8489L0.150932 0.87792H0.149932Z" fill="black" style="fill:black;fill:black;fill-opacity:1;"/>
</svg>
