<svg width="20" height="18" viewBox="0 0 20 18"  xmlns="http://www.w3.org/2000/svg">
<path opacity="0.5" d="M7.778 18H12.222C15.343 18 16.904 18 18.025 17.265C18.5087 16.948 18.9253 16.5389 19.251 16.061C20 14.961 20 13.428 20 10.364C20 7.29905 20 5.76705 19.251 4.66705C18.9253 4.18916 18.5087 3.78005 18.025 3.46305C17.305 2.99005 16.403 2.82105 15.022 2.76105C14.363 2.76105 13.796 2.27105 13.667 1.63605C13.5684 1.17092 13.3123 0.754083 12.9418 0.455997C12.5714 0.157912 12.1095 -0.00314481 11.634 4.65308e-05H8.366C7.378 4.65308e-05 6.527 0.685047 6.333 1.63605C6.204 2.27105 5.637 2.76105 4.978 2.76105C3.598 2.82105 2.696 2.99105 1.975 3.46305C1.49162 3.78011 1.07537 4.18922 0.75 4.66705C0 5.76705 0 7.29905 0 10.364C0 13.428 5.96046e-08 14.96 0.749 16.061C1.073 16.537 1.489 16.946 1.975 17.265C3.096 18 4.657 18 7.778 18Z" fill="black" style="fill:black;fill:black;fill-opacity:1;"/>
<path d="M15.5561 6.27201C15.4477 6.27109 15.3401 6.29154 15.2395 6.3322C15.1389 6.37286 15.0474 6.43293 14.97 6.50898C14.8927 6.58503 14.831 6.67558 14.7887 6.77544C14.7463 6.87531 14.7241 6.98254 14.7231 7.09101C14.7231 7.54301 15.0961 7.90901 15.5561 7.90901H16.6671C17.1271 7.90901 17.5011 7.54201 17.5011 7.09101C17.5002 6.98245 17.4779 6.87514 17.4355 6.77521C17.3931 6.67528 17.3314 6.58469 17.2539 6.50863C17.1765 6.43256 17.0848 6.37251 16.9841 6.33191C16.8834 6.29131 16.7757 6.27096 16.6671 6.27201H15.5561Z" fill="black" style="fill:black;fill:black;fill-opacity:1;"/>
<path fill-rule="evenodd" clip-rule="evenodd" d="M9.99998 6.27197C7.69998 6.27197 5.83398 8.10397 5.83398 10.363C5.83398 12.623 7.69898 14.454 10.001 14.454C12.301 14.454 14.167 12.623 14.167 10.364C14.167 8.10397 12.302 6.27197 10.001 6.27197H9.99998ZM9.99998 7.90897C8.61998 7.90897 7.49998 9.00797 7.49998 10.363C7.49998 11.719 8.61998 12.818 9.99998 12.818C11.381 12.818 12.5 11.719 12.5 10.363C12.5 9.00797 11.381 7.90897 9.99998 7.90897Z" fill="black" style="fill:black;fill:black;fill-opacity:1;"/>
</svg>
