<svg viewBox="0 0 176 176"  xmlns="http://www.w3.org/2000/svg">
<path d="M92.3464 0.889735C90.977 0.302699 89.5027 0 88.0129 0C86.523 0 85.0487 0.302699 83.6794 0.889735L6.68814 33.8879C4.70408 34.7332 3.01227 36.1431 1.82313 37.9423C0.633996 39.7415 0 41.8506 0 44.0073C0 46.1641 0.633996 48.2732 1.82313 50.0724C3.01227 51.8716 4.70408 53.2815 6.68814 54.1268L35.7688 66.5671C36.8482 65.3461 38.1857 64.3805 39.6844 63.7402L83.6794 44.8873C85.0107 44.2939 86.4467 43.971 87.9038 43.9375C89.361 43.904 90.8103 44.1604 92.1675 44.6919C93.5247 45.2235 94.7628 46.0194 95.8097 47.0337C96.8566 48.0479 97.6914 49.2601 98.2658 50.5998C98.8401 51.9395 99.1425 53.38 99.1552 54.8376C99.168 56.2952 98.8909 57.7408 98.3402 59.0904C97.7894 60.4399 96.9759 61.6666 95.9469 62.699C94.918 63.7314 93.6941 64.5489 92.3464 65.1042L62.3528 77.9735L83.6904 87.1139C85.0582 87.6994 86.5305 88.0013 88.0184 88.0013C89.5062 88.0013 90.9786 87.6994 92.3464 87.1139L169.338 54.1158C171.315 53.2674 173 51.8575 174.185 50.0607C175.369 48.264 176 46.1593 176 44.0073C176 41.8554 175.369 39.7507 174.185 37.954C173 36.1572 171.315 34.7473 169.338 33.8989L92.3464 0.900736V0.889735ZM14.4313 81.3723L33.0191 89.3248V134.444C29.2109 133.578 25.3545 132.939 21.4705 132.53C18.9643 132.267 16.6246 131.151 14.8428 129.369C13.0609 127.587 11.945 125.247 11.6816 122.741C10.2351 108.892 11.1651 94.8973 14.4313 81.3613V81.3723ZM80.3138 160.304C72.8788 153.008 64.3419 146.928 55.0166 142.287V98.7623L75.0124 107.342C79.1204 109.103 83.5433 110.011 88.0129 110.011C92.4824 110.011 96.9054 109.103 101.013 107.342L161.594 81.3723C164.88 94.9053 165.81 108.903 164.344 122.752C164.081 125.258 162.965 127.598 161.183 129.38C159.401 131.162 157.061 132.278 154.555 132.541C132.366 134.874 111.622 144.66 95.712 160.304C93.656 162.319 90.8918 163.448 88.0129 163.448C85.1339 163.448 82.3697 162.319 80.3138 160.304ZM44.0179 176C46.9349 176 49.7325 174.841 51.7952 172.778C53.8578 170.716 55.0166 167.918 55.0166 165.001V142.287C48.0214 138.811 40.6368 136.171 33.0191 134.444V165.001C33.0191 167.918 34.1779 170.716 36.2406 172.778C38.3033 174.841 41.1008 176 44.0179 176Z" fill="#EAA53E" style="fill:#EAA53E;fill:color(display-p3 0.9176 0.6471 0.2431);fill-opacity:1;"/>
</svg>
