<svg  viewBox="0 0 143 143" xmlns="http://www.w3.org/2000/svg">
<path d="M71.5 143C32.0106 143 0 110.989 0 71.5C0 32.0106 32.0106 0 71.5 0C110.989 0 143 32.0106 143 71.5C143 110.989 110.989 143 71.5 143ZM72.2071 41.8698C71.8166 41.4792 71.1834 41.4792 70.7928 41.8697L41.8697 70.7929C41.4791 71.1834 41.4791 71.8166 41.8697 72.2071L70.7928 101.13C71.1834 101.521 71.8166 101.521 72.2071 101.13L101.123 72.207C101.514 71.8165 101.514 71.1835 101.123 70.793L72.2071 41.8698Z" fill="#0CC800" style="fill:#0CC800;fill:color(display-p3 0.0478 0.7833 0.0000);fill-opacity:1;"/>
</svg>
