<svg width="28" height="27" viewBox="0 0 28 27" fill="none" xmlns="http://www.w3.org/2000/svg">
<mask id="mask0_295_14" style="mask-type:luminance" maskUnits="userSpaceOnUse" x="0" y="0" width="28" height="27">
<path d="M26.9328 14.2386C26.9486 14.4203 26.9264 14.6032 26.8677 14.7759C26.809 14.9486 26.7151 15.1071 26.5919 15.2415C26.4686 15.376 26.3188 15.4833 26.1519 15.5568C25.985 15.6302 25.8046 15.6682 25.6223 15.6682H23.1098C22.7608 15.6682 22.4261 15.5296 22.1794 15.2828C21.9326 15.0361 21.794 14.7014 21.794 14.3524L21.794 1.85241C21.794 1.50344 21.9326 1.16877 22.1794 0.922009C22.4261 0.675251 22.7608 0.536625 23.1098 0.536625H24.5348C24.8641 0.536543 25.1815 0.659958 25.4242 0.882494C25.667 1.10503 25.8175 1.41051 25.846 1.7386L26.9328 14.2386ZM17.8466 14.7636C17.8466 15.3136 17.5045 15.8057 17.0078 16.0399C15.9229 16.5518 14.0749 17.58 13.2414 18.9702C12.167 20.7623 11.9644 23.9998 11.9315 24.7412C11.9269 24.8452 11.9295 24.9491 11.9157 25.0518C11.7374 26.3366 9.25781 24.836 8.30715 23.2491C7.7907 22.3886 7.72491 21.2577 7.77886 20.3741C7.83742 19.4294 8.11439 18.5169 8.3861 17.6103L8.96505 15.6781H1.82228C1.61899 15.6781 1.41846 15.631 1.23642 15.5405C1.05439 15.45 0.895796 15.3185 0.773098 15.1564C0.650398 14.9943 0.566925 14.806 0.52923 14.6063C0.491535 14.4065 0.500641 14.2007 0.555836 14.005L4.08873 1.49452C4.16672 1.2186 4.33271 0.975708 4.56143 0.802797C4.79016 0.629887 5.06911 0.536423 5.35584 0.536625L16.5308 0.536625C16.8798 0.536625 17.2145 0.675251 17.4612 0.922009C17.708 1.16877 17.8466 1.50344 17.8466 1.85241V14.7636Z" fill="white" stroke="white" style="fill:white;fill:white;fill-opacity:1;stroke:white;stroke:white;stroke-opacity:1;" stroke-linecap="round" stroke-linejoin="round"/>
</mask>
<g mask="url(#mask0_295_14)">
<path d="M29.6887 28.8262L-1.89023 28.8262L-1.89023 -2.75278L29.6887 -2.75278L29.6887 28.8262Z" fill="white" style="fill:white;fill:white;fill-opacity:1;"/>
</g>
</svg>
