<svg width="246" height="328" viewBox="0 0 246 328" fill="none" xmlns="http://www.w3.org/2000/svg">
<path d="M188.174 124.238C199.715 115.885 209.113 104.916 215.597 92.2295C222.082 79.5434 225.469 65.5011 225.481 51.2532V41.0026H245.979V0H0V41.0026H20.4983V51.2532C20.498 65.4511 23.8555 79.4476 30.2965 92.0999C36.7375 104.752 46.0794 115.701 57.5592 124.053C64.4171 128.351 70.1901 134.174 74.4282 141.069C78.6664 147.964 81.2553 155.745 81.9932 163.805C81.1284 172.049 78.4598 180.002 74.1768 187.099C69.8938 194.196 64.1014 200.263 57.2107 204.869C45.9903 213.217 36.8437 224.038 30.4805 236.492C24.1173 248.947 20.7086 262.7 20.5188 276.685V286.997H0.0204968V328H246V286.997H225.502V276.747C225.337 262.834 221.982 249.145 215.696 236.734C209.409 224.322 200.358 213.519 189.24 205.156C182.294 200.603 176.434 194.576 172.077 187.504C167.72 180.433 164.972 172.489 164.027 164.236C164.671 156.187 167.17 148.397 171.327 141.475C175.484 134.554 181.187 128.689 187.99 124.34L188.174 124.238ZM143.488 164.01C144.176 175.165 147.325 186.03 152.708 195.823C158.092 205.617 165.576 214.097 174.625 220.655C183.682 226.997 191.14 235.358 196.408 245.079C201.677 254.8 204.613 265.614 204.983 276.665V287.018H40.9966V276.767C41.3354 265.785 44.2117 255.03 49.4002 245.345C54.5888 235.66 61.9487 227.308 70.9036 220.942C80.0342 214.417 87.6023 205.945 93.0613 196.138C98.5204 186.332 101.734 175.435 102.471 164.236C101.901 153.329 98.8362 142.698 93.5127 133.162C88.1892 123.626 80.7489 115.439 71.7645 109.231C62.3173 102.792 54.578 94.152 49.2141 84.0549C43.8503 73.9579 41.023 62.7073 40.9761 51.2737V41.0231H204.962V51.2737C204.943 62.6207 202.174 73.7939 196.895 83.8374C191.615 93.8808 183.981 102.495 174.645 108.944C165.592 115.097 158.073 123.247 152.668 132.766C147.262 142.285 144.114 152.918 143.468 163.846L143.488 164.01Z" fill="black" style="fill:black;fill:black;fill-opacity:1;"/>
</svg>
