<svg  viewBox="0 0 31 31"  xmlns="http://www.w3.org/2000/svg">
<path d="M29.8669 12.9527L29.7124 12.2972H15.4636V18.3278H23.9771C23.0932 22.5251 18.9916 24.7345 15.6413 24.7345C13.2036 24.7345 10.634 23.7091 8.9332 22.0609C8.03587 21.1775 7.3216 20.1257 6.83128 18.9658C6.34097 17.806 6.08423 16.5608 6.07578 15.3016C6.07578 12.7613 7.21738 10.2204 8.87852 8.54902C10.5396 6.87764 13.0484 5.94248 15.5429 5.94248C18.3996 5.94248 20.447 7.45938 21.2126 8.15117L25.498 3.88828C24.2409 2.78359 20.7874 0 15.4048 0C11.252 0 7.27002 1.59072 4.35928 4.49189C1.48682 7.34863 0 11.4796 0 15.3125C0 19.1454 1.40684 23.0699 4.19043 25.9492C7.16475 29.0199 11.3771 30.625 15.7145 30.625C19.6608 30.625 23.4015 29.0787 26.0675 26.2732C28.6884 23.5115 30.0439 19.6902 30.0439 15.6844C30.0439 13.9979 29.8744 12.9965 29.8669 12.9527Z" fill="#0F6DFB" style="fill:#0F6DFB;fill:color(display-p3 0.0588 0.4275 0.9843);fill-opacity:1;"/>
</svg>
