<svg width="28" height="27" viewBox="0 0 28 27" fill="none" xmlns="http://www.w3.org/2000/svg">
<mask id="mask0_295_13" style="mask-type:luminance" maskUnits="userSpaceOnUse" x="0" y="0" width="28" height="27">
<path d="M1.00493 12.298C0.989158 12.1163 1.01132 11.9334 1.07001 11.7607C1.1287 11.5881 1.22264 11.4295 1.34587 11.2951C1.46909 11.1607 1.61892 11.0533 1.78583 10.9799C1.95274 10.9064 2.1331 10.8685 2.31546 10.8684H4.82796C5.17693 10.8684 5.5116 11.007 5.75836 11.2538C6.00512 11.5006 6.14375 11.8352 6.14375 12.1842V24.6842C6.14375 25.0332 6.00512 25.3679 5.75836 25.6146C5.5116 25.8614 5.17693 26 4.82796 26H3.40296C3.07364 26.0001 2.75625 25.8767 2.5135 25.6541C2.27074 25.4316 2.12026 25.1261 2.09177 24.798L1.00493 12.298ZM10.0911 11.773C10.0911 11.223 10.4332 10.7309 10.9299 10.4967C12.0148 9.98487 13.8628 8.95658 14.6964 7.56644C15.7707 5.77434 15.9734 2.53684 16.0062 1.79539C16.0109 1.69144 16.0082 1.5875 16.022 1.48486C16.2003 0.199996 18.6799 1.70065 19.6306 3.2875C20.147 4.14802 20.2128 5.27894 20.1589 6.1625C20.1003 7.10723 19.8234 8.01973 19.5516 8.92631L18.9727 10.8586H26.1155C26.3188 10.8585 26.5193 10.9056 26.7013 10.9961C26.8834 11.0866 27.0419 11.2181 27.1646 11.3802C27.2873 11.5423 27.3708 11.7306 27.4085 11.9304C27.4462 12.1301 27.4371 12.3359 27.3819 12.5316L23.849 25.0421C23.771 25.318 23.605 25.5609 23.3763 25.7338C23.1476 25.9067 22.8686 26.0002 22.5819 26H11.4069C11.0579 26 10.7233 25.8614 10.4765 25.6146C10.2297 25.3679 10.0911 25.0332 10.0911 24.6842V11.773Z" fill="white" stroke="white" style="fill:white;fill:white;fill-opacity:1;stroke:white;stroke:white;stroke-opacity:1;" stroke-linecap="round" stroke-linejoin="round"/>
</mask>
<g mask="url(#mask0_295_13)">
<path d="M-1.75098 -2.28955H29.828V29.2894H-1.75098V-2.28955Z" fill="white" style="fill:white;fill:white;fill-opacity:1;"/>
</g>
</svg>
