<svg  viewBox="0 0 24 26"  xmlns="http://www.w3.org/2000/svg">
<path opacity="0.5" d="M0 17.95C0 14.5564 -7.15256e-08 12.8584 1.0548 11.8048C2.1084 10.75 3.8064 10.75 7.2 10.75H16.8C20.1936 10.75 21.8916 10.75 22.9452 11.8048C24 12.8584 24 14.5564 24 17.95C24 21.3436 24 23.0416 22.9452 24.0952C21.8916 25.15 20.1936 25.15 16.8 25.15H7.2C3.8064 25.15 2.1084 25.15 1.0548 24.0952C-7.15256e-08 23.0416 0 21.3436 0 17.95Z" fill="#F5F6FA" style="fill:#F5F6FA;fill:color(display-p3 0.9608 0.9647 0.9804);fill-opacity:1;"/>
<path d="M5.6999 8.35C5.6999 6.67914 6.36365 5.07671 7.54513 3.89523C8.72661 2.71375 10.329 2.05 11.9999 2.05C13.6708 2.05 15.2732 2.71375 16.4547 3.89523C17.6362 5.07671 18.2999 6.67914 18.2999 8.35V10.7548C18.9803 10.7608 19.5767 10.7764 20.0999 10.8148V8.35C20.0999 6.20175 19.2465 4.14148 17.7275 2.62244C16.2084 1.10339 14.1482 0.25 11.9999 0.25C9.85165 0.25 7.79138 1.10339 6.27234 2.62244C4.75329 4.14148 3.8999 6.20175 3.8999 8.35V10.816C4.4991 10.7765 5.0994 10.7561 5.6999 10.7548V8.35Z" fill="#F5F6FA" style="fill:#F5F6FA;fill:color(display-p3 0.9608 0.9647 0.9804);fill-opacity:1;"/>
</svg>
