<svg width="224" height="224" viewBox="0 0 224 224" fill="none" xmlns="http://www.w3.org/2000/svg">
<path d="M209.86 86.82C206.09 82.88 202.19 78.82 200.72 75.25C199.36 71.98 199.28 66.56 199.2 61.31C199.05 51.55 198.89 40.49 191.2 32.8C183.51 25.11 172.45 24.95 162.69 24.8C157.44 24.72 152.02 24.64 148.75 23.28C145.19 21.81 141.12 17.91 137.18 14.14C130.28 7.51 122.44 0 112 0C101.56 0 93.73 7.51 86.82 14.14C82.88 17.91 78.82 21.81 75.25 23.28C72 24.64 66.56 24.72 61.31 24.8C51.55 24.95 40.49 25.11 32.8 32.8C25.11 40.49 25 51.55 24.8 61.31C24.72 66.56 24.64 71.98 23.28 75.25C21.81 78.81 17.91 82.88 14.14 86.82C7.51 93.72 0 101.56 0 112C0 122.44 7.51 130.27 14.14 137.18C17.91 141.12 21.81 145.18 23.28 148.75C24.64 152.02 24.72 157.44 24.8 162.69C24.95 172.45 25.11 183.51 32.8 191.2C40.49 198.89 51.55 199.05 61.31 199.2C66.56 199.28 71.98 199.36 75.25 200.72C78.81 202.19 82.88 206.09 86.82 209.86C93.72 216.49 101.56 224 112 224C122.44 224 130.27 216.49 137.18 209.86C141.12 206.09 145.18 202.19 148.75 200.72C152.02 199.36 157.44 199.28 162.69 199.2C172.45 199.05 183.51 198.89 191.2 191.2C198.89 183.51 199.05 172.45 199.2 162.69C199.28 157.44 199.36 152.02 200.72 148.75C202.19 145.19 206.09 141.12 209.86 137.18C216.49 130.28 224 122.44 224 112C224 101.56 216.49 93.73 209.86 86.82ZM112 176C109.627 176 107.307 175.296 105.333 173.978C103.36 172.659 101.822 170.785 100.913 168.592C100.005 166.399 99.7676 163.987 100.231 161.659C100.694 159.331 101.836 157.193 103.515 155.515C105.193 153.836 107.331 152.694 109.659 152.231C111.987 151.768 114.399 152.005 116.592 152.913C118.785 153.822 120.659 155.36 121.978 157.333C123.296 159.307 124 161.627 124 164C124 167.183 122.736 170.235 120.485 172.485C118.235 174.736 115.183 176 112 176ZM120 127.28V128C120 130.122 119.157 132.157 117.657 133.657C116.157 135.157 114.122 136 112 136C109.878 136 107.843 135.157 106.343 133.657C104.843 132.157 104 130.122 104 128V120C104 117.878 104.843 115.843 106.343 114.343C107.843 112.843 109.878 112 112 112C125.23 112 136 103 136 92C136 81 125.23 72 112 72C98.77 72 88 81 88 92V96C88 98.1217 87.1571 100.157 85.6569 101.657C84.1566 103.157 82.1217 104 80 104C77.8783 104 75.8434 103.157 74.3431 101.657C72.8429 100.157 72 98.1217 72 96V92C72 72.15 89.94 56 112 56C134.06 56 152 72.15 152 92C152 109.38 138.24 123.93 120 127.28Z" fill="black" style="fill:black;fill:black;fill-opacity:1;"/>
</svg>
