<svg width="21" height="21" viewBox="0 0 21 21" fill="none" xmlns="http://www.w3.org/2000/svg">
<g clip-path="url(#clip0_216_8)">
<path d="M14 13.125C15.1427 13.125 16.1158 13.8556 16.4762 14.875H17.5C17.7321 14.875 17.9546 14.9672 18.1187 15.1313C18.2828 15.2954 18.375 15.5179 18.375 15.75C18.375 15.9821 18.2828 16.2046 18.1187 16.3687C17.9546 16.5328 17.7321 16.625 17.5 16.625H16.4762C16.2955 17.1373 15.9602 17.581 15.5167 17.8948C15.0732 18.2086 14.5433 18.3771 14 18.3771C13.4567 18.3771 12.9268 18.2086 12.4833 17.8948C12.0398 17.581 11.7045 17.1373 11.5238 16.625H3.5C3.26794 16.625 3.04538 16.5328 2.88128 16.3687C2.71719 16.2046 2.625 15.9821 2.625 15.75C2.625 15.5179 2.71719 15.2954 2.88128 15.1313C3.04538 14.9672 3.26794 14.875 3.5 14.875H11.5238C11.7049 14.3631 12.0403 13.9199 12.4838 13.6065C12.9272 13.2931 13.457 13.1248 14 13.125ZM7 7.875C7.51537 7.87493 8.01935 8.02657 8.44912 8.311C8.87888 8.59544 9.21541 9.00009 9.41675 9.4745L9.47538 9.625H17.5C17.723 9.62525 17.9375 9.71064 18.0997 9.86374C18.2619 10.0168 18.3595 10.2261 18.3725 10.4487C18.3856 10.6714 18.3132 10.8906 18.17 11.0616C18.0269 11.2326 17.8238 11.3425 17.6024 11.3689L17.5 11.375H9.47625C9.29985 11.874 8.97678 12.308 8.54939 12.6202C8.122 12.9324 7.61026 13.1082 7.08125 13.1244C6.55223 13.1407 6.03065 12.9967 5.58489 12.7114C5.13912 12.4261 4.78998 12.0127 4.58325 11.5255L4.52375 11.375H3.5C3.27698 11.3748 3.06247 11.2894 2.9003 11.1363C2.73813 10.9832 2.64054 10.7739 2.62747 10.5513C2.6144 10.3286 2.68684 10.1094 2.82998 9.9384C2.97312 9.76737 3.17617 9.65747 3.39762 9.63112L3.5 9.625H4.52375C4.70488 9.11306 5.04028 8.66987 5.48375 8.35646C5.92723 8.04305 6.45696 7.87484 7 7.875ZM14 2.625C15.1427 2.625 16.1158 3.35563 16.4762 4.375H17.5C17.7321 4.375 17.9546 4.46719 18.1187 4.63128C18.2828 4.79538 18.375 5.01794 18.375 5.25C18.375 5.48206 18.2828 5.70462 18.1187 5.86872C17.9546 6.03281 17.7321 6.125 17.5 6.125H16.4762C16.2955 6.63734 15.9602 7.081 15.5167 7.39481C15.0732 7.70862 14.5433 7.87714 14 7.87714C13.4567 7.87714 12.9268 7.70862 12.4833 7.39481C12.0398 7.081 11.7045 6.63734 11.5238 6.125H3.5C3.26794 6.125 3.04538 6.03281 2.88128 5.86872C2.71719 5.70462 2.625 5.48206 2.625 5.25C2.625 5.01794 2.71719 4.79538 2.88128 4.63128C3.04538 4.46719 3.26794 4.375 3.5 4.375H11.5238C11.7049 3.86306 12.0403 3.41987 12.4838 3.10646C12.9272 2.79305 13.457 2.62484 14 2.625Z" fill="white" style="fill:white;fill:white;fill-opacity:1;"/>
</g>
<defs>
<clipPath id="clip0_216_8">
<rect width="21" height="21" fill="white" style="fill:white;fill:white;fill-opacity:1;"/>
</clipPath>
</defs>
</svg>
